<?xml version="1.0" encoding="UTF-8"?>
<svg width="18px" height="18px" viewBox="0 0 18 18" version="1.1" xmlns="http://www.w3.org/2000/svg" xmlns:xlink="http://www.w3.org/1999/xlink">
    <title>explore-black-18dp copy</title>
    <g id="Page-1" stroke="none" stroke-width="1" fill="none" fill-rule="evenodd">
        <g id="Artboard" transform="translate(-65.000000, -38.000000)">
            <g id="explore-black-18dp-copy" transform="translate(65.000000, 38.000000)">
                <circle id="Oval" fill="#FFFFFF" cx="9" cy="9" r="9"></circle>
                <path d="M7.1140329,10.4867757 L10.3320043,7.68943581 L4.89581234,4.68540857 L7.1140329,10.4867757 Z M9,1.5 C4.86,1.5 1.5,4.86 1.5,9 C1.5,13.14 4.86,16.5 9,16.5 C13.14,16.5 16.5,13.14 16.5,9 C16.5,4.86 13.14,1.5 9,1.5 Z M9,15 C5.6925,15 3,12.3075 3,9 C3,5.6925 5.6925,3 9,3 C12.3075,3 15,5.6925 15,9 C15,12.3075 12.3075,15 9,15 Z" id="Shape" fill="#2BD1A8" fill-rule="nonzero"></path>
            </g>
        </g>
    </g>
</svg>