<?xml version="1.0" encoding="UTF-8"?>
<svg width="18px" height="18px" viewBox="0 0 18 18" version="1.1" xmlns="http://www.w3.org/2000/svg" xmlns:xlink="http://www.w3.org/1999/xlink">
    <title>explore-black-18dp copy 2</title>
    <g id="Page-1" stroke="none" stroke-width="1" fill="none" fill-rule="evenodd">
        <g id="Artboard" transform="translate(-12.000000, -5.000000)">
            <g id="explore-black-18dp-copy-2" transform="translate(12.000000, 5.000000)">
                <polygon id="Path" points="0 0 18 0 18 18 0 18"></polygon>
                <path d="M6.876823,8.84210194 L11.1406769,8.84210194 L9.00874995,3.008471 L6.876823,8.84210194 Z M9,1.5 C4.86,1.5 1.5,4.86 1.5,9 C1.5,13.14 4.86,16.5 9,16.5 C13.14,16.5 16.5,13.14 16.5,9 C16.5,4.86 13.14,1.5 9,1.5 Z M9,15 C5.6925,15 3,12.3075 3,9 C3,5.6925 5.6925,3 9,3 C12.3075,3 15,5.6925 15,9 C15,12.3075 12.3075,15 9,15 Z" id="Shape" fill="#F7B500" fill-rule="nonzero"></path>
            </g>
        </g>
    </g>
</svg>